<svg width="544" height="431" viewBox="0 0 544 431" fill="none" xmlns="http://www.w3.org/2000/svg">
<path d="M67.4802 87.1922C66.846 90.0263 63.9625 102.882 63.9053 103.355C62.912 111.56 61.4891 127.442 67.3795 134.823C76.9288 146.79 97.3495 146.649 109.875 146.001C130.642 144.927 168.51 136.847 187.766 131.601C232.984 119.281 277.874 101.317 317.971 76.8704C333.396 67.4663 348.361 56.0539 359.56 41.7261C363.393 36.8229 367.983 30.3822 369.328 24.1036C370.088 20.5578 366.799 17.435 364.444 15.3427C355.305 7.22223 343.006 3.96544 331.213 2" stroke="black" stroke-width="4" stroke-linecap="round"/>
<path d="M42.243 287.202C27.2678 296.109 14.0262 307.787 6.0145 323.684C3.3997 328.872 0.193691 338.076 3.42223 344.169C6.71238 350.378 17.4471 354.498 23.1488 355.866C34.9816 358.705 54.1484 359.266 65.6999 358.901C81.3637 358.405 105.988 355.686 121.276 352.831C160.79 345.452 197.706 330.617 231.921 309.584C250.244 298.32 272.061 282.128 288.951 269.056C295.66 263.864 348.308 221.57 353.568 217.148C400.339 177.82 444.797 134.681 473.508 79.8841C478.181 70.9658 490.278 45.109 486.153 31.7059C482.858 20.9992 467.399 20.3281 459.598 21.3368C434.535 24.578 413.849 42.0747 393.337 55.0363" stroke="black" stroke-width="4" stroke-linecap="round"/>
<path d="M246.447 381.145C239.506 386.793 232.699 393.181 226.904 399.989C224.515 402.795 220.532 407.791 220.02 411.948C219.181 418.751 225.555 423.031 230.958 425.016C239.737 428.243 248.108 428.733 257.503 428.808C274.101 428.941 287.189 427.502 303.765 424.462C357.896 414.534 408.67 390.089 451.859 356.118C469.244 342.444 489.156 323.122 503.839 306.471C513.468 295.552 527.562 277.304 534.876 263.884C538.715 256.838 541.736 248.273 541.993 240.081C542.11 236.344 540.767 230.146 537.297 227.859C532.634 224.787 524.353 227.92 519.591 228.939C512.78 230.396 506.134 232.006 499.522 234.131" stroke="black" stroke-width="4" stroke-linecap="round" stroke-linejoin="round"/>
</svg>
